PathFileType	4	(X/Y/Z)	D:\Share\Shared_Data\Ergonomics\Sit To Stand Pertubation\S3\Perturbed.trc
DataRate	CameraRate	NumFrames	NumMarkers	Units	OrigDataRate	OrigDataStartFrame	OrigNumFrames	
100	100	9	18	m	100	11576	211
Frame#	Time	R_ASIS			R_Pelvis			V_Sacral			L_Pelvis			L_ASIS			Clavical			R_Acromium			L_Acromium			Sternum			Torso			R_Thigh_Med			R_Thigh_Lat			R_Thigh			R_Shank_Med			R_Shank_Lat			R_Shank			R_Heel			R_Toe			
		X1	Y1	Z1	X2	Y2	Z2	X3	Y3	Z3	X4	Y4	Z4	X5	Y5	Z5	X6	Y6	Z6	X7	Y7	Z7	X8	Y8	Z8	X9	Y9	Z9	X10	Y10	Z10	X11	Y11	Z11	X12	Y12	Z12	X13	Y13	Z13	X14	Y14	Z14	X15	Y15	Z15	X16	Y16	Z16	X17	Y17	Z17	X18	Y18	Z18	

11576	115.75	0.17248734	0.68012451	0.14667542	0.07969445	0.73450714	0.21198523	-0.02824251	0.79155292	0.023909172	0.067339691	0.74987305	-0.19204539	0.15931442	0.68265234	-0.13794321	0.39135889	1.0065558	0.0039219959	0.42267136	1.0780479	0.15574628	0.42283481	1.0867955	-0.12821565	0.37100577	0.9288064	0.0064227614	0.38448087	0.99443903	-0.054814522	0.4103067	0.44743677	0.054351509	0.40156183	0.43339267	0.16987134	0.2795473	0.61250323	0.099345467	0.29968677	0.10442621	0.086300629	0.28260489	0.092561493	0.16827187	0.32566449	0.26751871	0.185064	0.22204425	0.052062599	0.12995824	0.44054132	0.054664223	0.11213326
11577	115.76	0.17617261	0.68700269	0.14640224	0.084043037	0.74121222	0.21206715	-0.024366707	0.79797754	0.023672194	0.070744736	0.75640973	-0.19172595	0.16263441	0.68967273	-0.13740808	0.39313675	1.0164506	0.0036612306	0.4240462	1.0878851	0.15568503	0.42319257	1.096954	-0.12953116	0.37313153	0.93848792	0.0057396264	0.38633475	1.0041697	-0.054992401	0.41097958	0.44736368	0.0544114	0.4024761	0.43327914	0.16957056	0.28373865	0.61497821	0.09963578	0.29958295	0.10449847	0.086366966	0.2825524	0.092565041	0.16834502	0.32608096	0.26761212	0.18510011	0.22200249	0.051141483	0.12933525	0.44045612	0.054716629	0.11211196
11578	115.77	0.17985396	0.69423267	0.14624881	0.088169952	0.74812823	0.21208554	-0.020545197	0.8044057	0.023313189	0.074241798	0.76312048	-0.19142778	0.16603745	0.69697833	-0.1368027	0.39471783	1.0268014	0.0033942547	0.42507727	1.098168	0.15569128	0.42328091	1.1075699	-0.13116342	0.3750181	0.94865295	0.0049728193	0.38808124	1.0143076	-0.055264542	0.41159436	0.44751923	0.054595238	0.40322803	0.43323044	0.16933772	0.2879068	0.61752393	0.10007214	0.29948022	0.10457935	0.086447029	0.282492	0.092590195	0.168439	0.32638794	0.26773578	0.18516206	0.22196274	0.050402283	0.12884489	0.44037637	0.05476408	0.11209339
11579	115.78	0.18355719	0.701797	0.14622223	0.092086189	0.75522638	0.21205205	-0.016766567	0.81087012	0.02290196	0.077837227	0.76996985	-0.19114548	0.16953773	0.70453162	-0.13614249	0.39610632	1.0375809	0.0031280546	0.42576779	1.1088689	0.15576567	0.42318475	1.1186329	-0.13280667	0.37669113	0.95927148	0.0041858411	0.38971655	1.0248575	-0.055598255	0.4121467	0.44788242	0.054890297	0.403823	0.43325031	0.16916434	0.29203842	0.62010718	0.10064724	0.2993822	0.10466693	0.086536774	0.28241861	0.092647888	0.16855899	0.3265881	0.26788235	0.18524208	0.22192577	0.049878601	0.12851239	0.44030182	0.054807556	0.112078
11580	115.79	0.18730399	0.70967041	0.14632066	0.095819069	0.76247498	0.21197935	-0.013016585	0.81743481	0.02252421	0.081532639	0.77692584	-0.190875	0.17314632	0.71229529	-0.1354469	0.39730447	1.0487593	0.0028713892	0.42612433	1.1199575	0.1559075	0.42294162	1.1301005	-0.13413368	0.37817847	0.97029712	0.0034650512	0.39119583	1.0358101	-0.055962723	0.41263174	0.4484259	0.055285496	0.40425876	0.4333407	0.16904626	0.29612381	0.62269897	0.10135291	0.29928958	0.10475993	0.086634842	0.28232803	0.092746407	0.16871057	0.32668011	0.26804413	0.18533798	0.22189113	0.049550823	0.12832373	0.44022977	0.054850048	0.11206715
11581	115.8	0.19111621	0.71781842	0.14653073	0.099408257	0.76983966	0.2118784	-0.0092806053	0.82414514	0.02224514	0.085325447	0.78396021	-0.19061362	0.17687213	0.72023438	-0.13473807	0.39831268	1.0603018	0.0026342893	0.426155	1.1314015	0.156116	0.42254544	1.1419031	-0.13491273	0.37950717	0.98167078	0.0028886259	0.39245282	1.0471398	-0.056339809	0.41305246	0.44912234	0.055772331	0.40452911	0.43350024	0.16898392	0.30016464	0.62528033	0.10218031	0.2992005	0.10485732	0.086741974	0.28221872	0.092887657	0.16889662	0.32666104	0.26821548	0.18545071	0.22185736	0.049375156	0.12824725	0.44015576	0.054895969	0.11206246
11582	115.81	0.19501524	0.72620148	0.14682851	0.10290167	0.77728516	0.21175613	-0.0055452309	0.83099005	0.022085339	0.08920961	0.79104779	-0.1903587	0.18072302	0.72831714	-0.13403891	0.39913	1.0721709	0.0024269004	0.42586807	1.1431656	0.15638957	0.42196048	1.1539551	-0.13510703	0.38070114	0.99332709	0.0024947433	0.39344125	1.058808	-0.056717426	0.41342267	0.44994806	0.056342842	0.40462695	0.43372363	0.16897914	0.30417789	0.6278443	0.10311909	0.2991113	0.10495849	0.086859772	0.28209311	0.093063881	0.16911374	0.32652872	0.2683945	0.18558218	0.22182251	0.049302879	0.12824783	0.44007443	0.054950756	0.11206548
11583	115.82	0.19901752	0.73477911	0.1471835	0.10635216	0.78477783	0.21161516	-0.0017976778	0.83790851	0.022038925	0.093176537	0.79816742	-0.19010736	0.18470654	0.7365163	-0.13337039	0.39975403	1.0843245	0.0022582765	0.42527145	1.1552124	0.1567251	0.42112872	1.1661655	-0.13489246	0.3817825	1.0051969	0.0022717957	0.39415445	1.0707672	-0.05707943	0.41375797	0.45087927	0.056985394	0.40454587	0.43400217	0.16902965	0.30818713	0.63039246	0.10415659	0.29901773	0.10506308	0.086989487	0.28195673	0.093257462	0.16934981	0.32628387	0.26858316	0.18573381	0.22178516	0.049291054	0.12829483	0.43998099	0.05502029	0.11207827
11584	115.83	0.20313268	0.74351373	0.14756331	0.10981355	0.7922876	0.21145422	0.0019764372	0.84484033	0.0220823	0.097216324	0.80530103	-0.18985803	0.1888304	0.74480884	-0.13274973	0.40018088	1.0967183	0.0021356533	0.42437186	1.1675026	0.15711832	0.4199863	1.1784519	-0.1345517	0.38277161	1.0172156	0.002175972	0.3946152	1.0829655	-0.057404827	0.41405981	0.45188275	0.05768198	0.40428305	0.4343269	0.16912569	0.31220645	0.63292578	0.10527736	0.2989158	0.10517073	0.087131134	0.28181732	0.093442101	0.16958224	0.32593152	0.26878629	0.18590564	0.22174455	0.04930706	0.12836531	0.43987277	0.055109898	0.11210387
